<?xml version="1.0" encoding="utf-8"?>
<!-- Generator: Adobe Illustrator 23.0.0, SVG Export Plug-In . SVG Version: 6.00 Build 0)  -->
<svg version="1.1" xmlns="http://www.w3.org/2000/svg" xmlns:xlink="http://www.w3.org/1999/xlink" x="0px" y="0px"
	 viewBox="0 0 1024 1024" style="enable-background:new 0 0 1024 1024;" xml:space="preserve">
	 
<style type="text/css">
	.st0{fill:#FFFFFF;}
	.st1{fill:#282828;}
	.st2{fill:#E0210E;}
	.st3{fill:#3A3A3A;}
	.st4{fill:#5B5B5B;}
	.st5{fill:#383838;}
	.st6{fill:#333333;}
	.st7{fill:#262525;}
	.st8{fill:#1E1D1D;}
	.st9{fill:#3D3D3D;}
	.st10{fill:#C61212;}
	.st11{fill:#FF3131;}
	.st12{fill:#F22020;}
	.st13{fill:#B70F0F;}
	.st14{fill:#020202;}
	.st15{fill:none;stroke:#D80000;stroke-width:2;stroke-miterlimit:10;}
	.st16{fill:none;stroke:#FF6161;stroke-miterlimit:10;}
	.st17{fill:none;stroke:#000000;stroke-miterlimit:10;}
	.st18{fill:none;stroke:#FF7D7D;stroke-miterlimit:10;}
	.st19{fill:#191919;}
	.st20{fill:#AAA5A5;}
	.st21{fill:none;stroke:#FF2222;stroke-width:2;stroke-miterlimit:10;}
	.st22{fill:none;stroke:#FF8D8D;stroke-miterlimit:10;}
	.st23{fill:#FF8D8D;}
	.st24{fill:#7C7171;}
	.st25{fill:#A8A1A1;}
	.st26{fill:#8C0000;}
	.st27{fill:#D3D3D3;stroke:#EDEDED;stroke-width:0.5;stroke-miterlimit:10;}
	.st28{fill:#CECECE;stroke:#D8D8D8;stroke-width:0.75;stroke-miterlimit:10;}
	.st29{fill:#4C4B4B;stroke:#D6D4D4;stroke-width:0.75;stroke-miterlimit:10;}
	.st30{fill:#FF6C6C;}
	.st31{fill:#FF7B7B;}
	.st32{fill:#FFA9A9;}
	.st33{fill:#0C0B0B;stroke:#595757;stroke-width:2;stroke-miterlimit:10;}
	.st34{fill:none;stroke:#5E5E5E;stroke-width:3;stroke-linecap:round;stroke-miterlimit:10;}
	.st35{fill:#050505;}
	.st36{fill:#9B9B9B;}
	.st37{fill:#FF8080;}
	.st38{fill:#847E7E;}
	.st39{fill:none;stroke:#990000;stroke-width:2;stroke-miterlimit:10;}
	.st40{opacity:0.1;fill:#FFFFFF;}
	.st41{opacity:0.2;fill:#FFFFFF;}
	.st42{opacity:0.62;fill:#FCF5F5;}
	.st43{fill:#FF7878;}
</style>
<g id="Layer_1">
	<g>
		<g>
			<path d="M276.51,824.13c0,1.64-0.7,2.46-2.11,2.46s-2.11-0.84-2.11-2.52V791.2c0-1.72,0.66-2.58,1.99-2.58h24.96
				c1.72,0,2.58,0.74,2.58,2.23c0,1.33-0.86,1.99-2.58,1.99h-22.73v10.25h15.53c1.95,0,2.93,0.74,2.93,2.23
				c0,1.33-0.98,1.99-2.93,1.99h-15.53V824.13z"/>
			<path d="M316,807.31v14.65h22.73c1.72,0,2.58,0.74,2.58,2.23c0,1.33-0.86,1.99-2.58,1.99h-24.96c-1.33,0-1.99-0.86-1.99-2.58
				v-32.4c0-1.72,0.66-2.58,1.99-2.58h24.96c1.72,0,2.58,0.74,2.58,2.23c0,1.33-0.86,1.99-2.58,1.99H316v10.25h15.53
				c1.95,0,2.93,0.74,2.93,2.23c0,1.33-0.98,1.99-2.93,1.99H316z"/>
			<path d="M372.02,806.49c1.21,1.49,2.38,3.66,3.52,6.53c1.13,2.87,1.96,5.35,2.49,7.44c0.53,2.09,0.79,3.35,0.79,3.78
				c0,0.63-0.21,1.17-0.62,1.64s-0.93,0.7-1.55,0.7c-0.66,0-1.16-0.23-1.49-0.7c-0.33-0.47-0.52-1.02-0.56-1.64
				c-0.04-0.66-0.32-1.97-0.85-3.93c-0.53-1.95-1.46-4.32-2.81-7.09c-1.35-2.77-2.86-4.75-4.54-5.92h-10.9v16.93
				c0,1.56-0.72,2.34-2.17,2.34c-1.37,0-2.05-0.78-2.05-2.34v-33.34c0-1.72,0.66-2.58,1.99-2.58h11.02c4.77,0,8.3,0.67,10.61,2.02
				c2.3,1.35,3.46,3.82,3.46,7.41C378.34,802.37,376.23,805.28,372.02,806.49z M355.49,792.84v10.25h8.79c3.83,0,6.43-0.33,7.79-1
				c1.37-0.66,2.05-2.05,2.05-4.16s-0.7-3.49-2.11-4.13s-3.98-0.97-7.73-0.97H355.49z"/>
			<path d="M408.75,806.49c1.21,1.49,2.38,3.66,3.52,6.53c1.13,2.87,1.96,5.35,2.49,7.44c0.53,2.09,0.79,3.35,0.79,3.78
				c0,0.63-0.21,1.17-0.62,1.64s-0.93,0.7-1.55,0.7c-0.66,0-1.16-0.23-1.49-0.7c-0.33-0.47-0.52-1.02-0.56-1.64
				c-0.04-0.66-0.32-1.97-0.85-3.93c-0.53-1.95-1.46-4.32-2.81-7.09c-1.35-2.77-2.86-4.75-4.54-5.92h-10.9v16.93
				c0,1.56-0.72,2.34-2.17,2.34c-1.37,0-2.05-0.78-2.05-2.34v-33.34c0-1.72,0.66-2.58,1.99-2.58h11.02c4.77,0,8.3,0.67,10.61,2.02
				c2.3,1.35,3.46,3.82,3.46,7.41C415.08,802.37,412.97,805.28,408.75,806.49z M392.23,792.84v10.25h8.79c3.83,0,6.43-0.33,7.79-1
				c1.37-0.66,2.05-2.05,2.05-4.16s-0.7-3.49-2.11-4.13s-3.98-0.97-7.73-0.97H392.23z"/>
			<path d="M423.29,827.12c-0.43,0-0.89-0.16-1.38-0.47c-0.49-0.31-0.73-0.82-0.73-1.52c0-0.39,0.06-0.76,0.18-1.11l14.12-35.68
				h4.34l14.12,35.68c0.12,0.35,0.18,0.72,0.18,1.11c0,0.7-0.24,1.21-0.73,1.52c-0.49,0.31-0.95,0.47-1.38,0.47
				c-1.02,0-1.74-0.55-2.17-1.64l-4.04-10.37H429.5l-4.04,10.37C424.98,826.57,424.26,827.12,423.29,827.12z M431.2,810.89h12.89
				l-6.5-15.88L431.2,810.89z"/>
			<path d="M482.88,806.49c1.21,1.49,2.38,3.66,3.52,6.53c1.13,2.87,1.96,5.35,2.49,7.44c0.53,2.09,0.79,3.35,0.79,3.78
				c0,0.63-0.21,1.17-0.62,1.64s-0.93,0.7-1.55,0.7c-0.67,0-1.16-0.23-1.49-0.7c-0.33-0.47-0.52-1.02-0.56-1.64
				c-0.04-0.66-0.32-1.97-0.85-3.93c-0.53-1.95-1.46-4.32-2.81-7.09c-1.35-2.77-2.86-4.75-4.54-5.92h-10.9v16.93
				c0,1.56-0.72,2.34-2.17,2.34c-1.37,0-2.05-0.78-2.05-2.34v-33.34c0-1.72,0.66-2.58,1.99-2.58h11.02c4.77,0,8.3,0.67,10.61,2.02
				c2.3,1.35,3.46,3.82,3.46,7.41C489.2,802.37,487.09,805.28,482.88,806.49z M466.35,792.84v10.25h8.79c3.83,0,6.42-0.33,7.79-1
				c1.37-0.66,2.05-2.05,2.05-4.16s-0.7-3.49-2.11-4.13s-3.98-0.97-7.73-0.97H466.35z"/>
			<path d="M503.09,824.25c0,1.56-0.72,2.34-2.17,2.34c-1.37,0-2.05-0.78-2.05-2.34v-33.34c0-1.6,0.7-2.4,2.11-2.4
				s2.11,0.8,2.11,2.4V824.25z"/>
			<path d="M566.49,815.75c0,2.23-0.29,4.05-0.88,5.48c-0.59,1.43-1.5,2.52-2.75,3.28c-1.25,0.76-2.66,1.28-4.22,1.55
				c-1.56,0.27-3.52,0.41-5.86,0.41h-2.05c-4.77,0-8.25-0.72-10.46-2.17c-2.21-1.44-3.31-4.3-3.31-8.55c0-4.02,1.09-6.91,3.28-8.67
				c-2.19-1.56-3.28-4.34-3.28-8.32c0-1.84,0.23-3.39,0.7-4.66c0.47-1.27,1.05-2.26,1.76-2.99c0.7-0.72,1.71-1.27,3.02-1.64
				c1.31-0.37,2.55-0.61,3.72-0.7c1.17-0.1,2.7-0.15,4.57-0.15h2.05c1.88,0,3.4,0.05,4.57,0.15c1.17,0.1,2.4,0.33,3.69,0.7
				c1.29,0.37,2.29,0.92,2.99,1.64c0.7,0.72,1.29,1.72,1.76,2.99c0.47,1.27,0.7,2.82,0.7,4.66c0,4.06-1.08,6.84-3.22,8.32
				C565.41,808.88,566.49,811.77,566.49,815.75z M562.27,798.88c0-1.02-0.05-1.85-0.15-2.52c-0.1-0.66-0.33-1.23-0.7-1.7
				c-0.37-0.47-0.73-0.82-1.08-1.05s-0.98-0.41-1.88-0.53c-0.9-0.12-1.69-0.18-2.37-0.21c-0.68-0.02-1.79-0.03-3.31-0.03h-2.17
				c-1.29,0-2.22,0.01-2.78,0.03c-0.57,0.02-1.28,0.06-2.14,0.12c-0.86,0.06-1.46,0.17-1.79,0.32c-0.33,0.16-0.73,0.37-1.2,0.64
				c-0.47,0.27-0.78,0.64-0.94,1.08c-0.16,0.45-0.29,0.99-0.41,1.61c-0.12,0.63-0.18,1.37-0.18,2.23c0,0.86,0.06,1.59,0.18,2.2
				c0.12,0.61,0.25,1.12,0.41,1.55c0.16,0.43,0.46,0.78,0.91,1.05c0.45,0.27,0.86,0.49,1.23,0.64c0.37,0.16,0.97,0.27,1.79,0.35
				c0.82,0.08,1.55,0.13,2.2,0.15c0.64,0.02,1.59,0.03,2.84,0.03h2.05c1.29,0,2.25-0.01,2.87-0.03c0.62-0.02,1.36-0.06,2.2-0.12
				c0.84-0.06,1.44-0.18,1.79-0.35s0.74-0.39,1.17-0.64c0.43-0.25,0.72-0.61,0.88-1.05c0.16-0.45,0.29-0.98,0.41-1.58
				C562.21,800.47,562.27,799.74,562.27,798.88z M541.18,815.63c0,2.89,0.63,4.72,1.9,5.48c1.27,0.76,3.82,1.14,7.65,1.14h2.05
				c3.79,0,6.32-0.38,7.59-1.14c1.27-0.76,1.9-2.59,1.9-5.48c0-2.85-0.64-4.66-1.9-5.42c-1.27-0.76-3.8-1.14-7.59-1.14h-2.05
				c-3.79,0-6.33,0.38-7.62,1.14S541.18,812.78,541.18,815.63z"/>
			<path d="M579.2,792.84l-0.47,0.41c-0.67,0.63-1.37,0.94-2.11,0.94c-0.7,0-1.21-0.2-1.52-0.59c-0.31-0.39-0.47-0.78-0.47-1.17
				c0-0.66,0.35-1.33,1.05-1.99l3.57-3.52c0.66-0.59,1.33-0.88,1.99-0.88c0.47,0,0.95,0.19,1.44,0.56c0.49,0.37,0.73,0.93,0.73,1.67
				v35.98c0,1.56-0.7,2.34-2.11,2.34s-2.11-0.78-2.11-2.34V792.84z"/>
			<path d="M624.96,799.46c0,1.95-0.83,3.71-2.49,5.27c-1.66,1.56-3.69,2.92-6.09,4.07c-2.4,1.15-4.83,2.31-7.27,3.49
				c-2.44,1.17-4.57,2.61-6.39,4.31s-2.82,3.58-3.02,5.65h22.62c1.76,0,2.64,0.72,2.64,2.17c0,1.37-0.88,2.05-2.64,2.05h-26.84
				v-3.34c0-2.73,0.87-5.17,2.61-7.29c1.74-2.13,3.85-3.84,6.33-5.13c2.48-1.29,4.95-2.47,7.41-3.54c2.46-1.07,4.56-2.24,6.3-3.49
				c1.74-1.25,2.61-2.62,2.61-4.1c0-2.93-0.64-4.78-1.93-5.57c-1.29-0.78-3.81-1.17-7.56-1.17h-8.96c-1.02,0-1.7,0.2-2.05,0.59
				c-0.35,0.39-0.53,1.17-0.53,2.34c0,1.76-0.72,2.64-2.17,2.64c-1.37,0-2.05-0.88-2.05-2.64c0-2.58,0.51-4.41,1.52-5.51
				c1.02-1.09,2.64-1.64,4.86-1.64h9.38c4.73,0,8.19,0.74,10.4,2.23C623.86,792.33,624.96,795.21,624.96,799.46z"/>
			<path d="M684.2,812.35h-7.44c-1.95,0-2.93-0.68-2.93-2.05c0-1.44,0.98-2.17,2.93-2.17h11.66v11.78c0,2.03-0.44,3.66-1.32,4.89
				s-2.59,1.85-5.13,1.85h-9.32c-4.77,0-8.25-0.72-10.46-2.17c-2.21-1.44-3.31-4.26-3.31-8.44v-16.99c0-4.26,1.15-7.09,3.46-8.5
				c2.3-1.41,6.09-2.11,11.37-2.11h8.26c2.54,0,4.25,0.64,5.13,1.93s1.32,3.01,1.32,5.16c0,1.8-0.7,2.7-2.11,2.7
				s-2.11-0.86-2.11-2.58c0-1.17-0.18-1.96-0.53-2.37s-1.05-0.62-2.11-0.62h-7.85c-4.3,0-7.14,0.38-8.53,1.14
				c-1.39,0.76-2.08,2.57-2.08,5.42v16.64c0,2.85,0.63,4.66,1.9,5.42c1.27,0.76,3.82,1.14,7.65,1.14h8.91
				c1.05,0,1.76-0.18,2.11-0.56c0.35-0.37,0.53-1.12,0.53-2.26V812.35z"/>
			<path d="M721.41,788.33c1.68,0,2.52,0.72,2.52,2.17c0,1.37-0.84,2.05-2.52,2.05h-8.67v31.7c0,0.82-0.26,1.42-0.79,1.79
				s-1.1,0.56-1.73,0.56c-0.63,0-1.17-0.18-1.64-0.53s-0.7-0.96-0.7-1.82v-31.7h-8.79c-0.9,0-1.54-0.21-1.93-0.64
				c-0.39-0.43-0.59-0.92-0.59-1.46c0-0.55,0.2-1.03,0.59-1.46c0.39-0.43,1.03-0.64,1.93-0.64H721.41z"/>
			<path d="M736.29,798.35c0,1.33,0.29,2.49,0.88,3.49s1.31,1.59,2.17,1.79l16.11,2.87c2.85,0.55,4.9,1.77,6.15,3.66
				c1.25,1.9,1.88,4.11,1.88,6.65c0,2.73-0.86,5.06-2.58,6.97c-1.72,1.91-4.55,2.87-8.5,2.87h-5.63c-5.16,0-8.9-0.74-11.22-2.23
				c-2.32-1.48-3.49-4.45-3.49-8.91c0-1.68,0.74-2.52,2.23-2.52c0.62,0,1.12,0.23,1.49,0.7c0.37,0.47,0.56,1.08,0.56,1.82
				c0,3.01,0.67,4.91,2.02,5.71c1.35,0.8,4.15,1.2,8.41,1.2h6.91c2.03,0,3.47-0.62,4.31-1.85c0.84-1.23,1.26-2.55,1.26-3.96
				c0-1.76-0.35-3.15-1.05-4.19c-0.7-1.03-1.37-1.63-1.99-1.79l-16-2.99c-2.93-0.59-5.02-1.63-6.27-3.13
				c-1.25-1.5-1.88-3.62-1.88-6.36c0-1.25,0.18-2.4,0.56-3.46c0.37-1.05,0.99-2.08,1.85-3.08c0.86-1,2.12-1.78,3.78-2.34
				c1.66-0.57,3.64-0.85,5.95-0.85h4.45c2.62,0,4.75,0.14,6.42,0.41c1.66,0.27,3.17,0.79,4.54,1.55c1.37,0.76,2.35,1.88,2.96,3.37
				c0.61,1.49,0.91,3.38,0.91,5.68c0,0.9-0.23,1.54-0.67,1.93c-0.45,0.39-0.95,0.59-1.49,0.59c-0.63,0-1.13-0.23-1.52-0.7
				c-0.39-0.47-0.59-1.07-0.59-1.82c0-3.01-0.67-4.89-1.99-5.65c-1.33-0.76-4.18-1.14-8.55-1.14h-6.21c-2.27,0-3.86,0.61-4.78,1.82
				C736.75,795.69,736.29,796.98,736.29,798.35z"/>
		</g>
		<path d="M768,752H262c-0.55,0-1-0.45-1-1l0,0c0-0.55,0.45-1,1-1h506c0.55,0,1,0.45,1,1l0,0C769,751.55,768.55,752,768,752z"/>
		<path d="M768,867H262c-0.55,0-1-0.45-1-1l0,0c0-0.55,0.45-1,1-1h506c0.55,0,1,0.45,1,1l0,0C769,866.55,768.55,867,768,867z"/>
	</g>
</g>
<g id="Layer_3">
	<path class="st1" d="M76.49,427.59L65.6,487.47c-1.07,5.89-1.61,11.87-1.61,17.87v164.89c0,16.99,13.77,30.76,30.76,30.76h69.29
		c8.59,0,15.56-6.97,15.56-15.56v-6.32"/>
	<path class="st1" d="M954.51,427.59l10.89,59.88c1.07,5.89,1.61,11.87,1.61,17.87v164.89c0,16.99-13.77,30.76-30.76,30.76h-69.29
		c-8.59,0-15.56-6.97-15.56-15.56v-6.32"/>
	<path class="st2" d="M88.98,639.07L78.05,617.2l10.94-15.62c0,0-14.06-53.12-12.5-139.05c1.56-85.93,9.37-98.43,9.37-98.43
		s45.31-32.81,54.68-37.5s14.06-7.81,14.06-7.81s9.37-25,21.87-48.43s43.75-34.37,43.75-34.37s54.68-74.99,89.05-85.93
		C343.64,139.12,432.7,136,515.5,136s189.04,6.25,212.48,15.62c23.43,9.37,57.81,51.56,65.62,62.49
		c7.81,10.94,17.19,26.56,17.19,26.56s26.56,6.25,43.75,39.06c17.19,32.81,21.87,46.87,21.87,46.87s64.06,32.81,70.3,46.87
		s14.06,112.49,7.81,173.42c-4.53,44.17-7.01,55.09-8.03,57.75c-0.25,0.65-0.18,1.39,0.21,1.97l9.38,13.71c0,0-10.94,25-15.62,26.56
		c-4.69,1.56-17.19,37.5-426.52,37.5S88.98,639.07,88.98,639.07z"/>
	<path class="st2" d="M103.05,257.3c0,0-3.12-14.06,12.5-18.75c15.62-4.69,46.87-7.81,51.56,0c4.69,7.81-6.25,39.06-6.25,39.06
		S128.04,280.73,103.05,257.3z"/>
	<path class="st2" d="M927.52,261.99c0,0,3.12-14.06-12.5-18.75s-46.87-7.81-51.56,0c-4.69,7.81,6.25,39.06,6.25,39.06
		S902.52,285.42,927.52,261.99z"/>
	<path class="st3" d="M196.79,299.48c0,0,18.75-40.62,45.31-76.55c26.56-35.93,45.31-51.56,45.31-51.56s90.61-14.06,226.54-14.06
		s229.66,15.62,229.66,15.62s21.87,20.31,51.56,65.62s39.06,65.62,39.06,65.62s-221.85-4.69-324.96-4.69
		S215.53,297.92,196.79,299.48z"/>
	<path class="st4" d="M296.77,502.58c0,0-31.25,1.56-49.99-4.69c-18.75-6.25-82.8-43.75-98.43-57.81s-23.43-67.18-17.19-74.99
		c6.25-7.81,48.43-6.25,56.24,3.12c7.81,9.37,49.99,89.05,57.81,95.3C253.03,469.78,301.46,501.02,296.77,502.58z"/>
	<path class="st5" d="M279.77,489.85c0,0-27.14,1.36-43.42-4.07s-71.92-37.99-85.48-50.21c-13.57-12.21-20.35-58.35-14.93-65.13
		c5.43-6.78,42.06-5.43,48.85,2.71c6.78,8.14,43.42,77.34,50.21,82.77C241.77,461.35,283.84,488.49,279.77,489.85z"/>
	<path class="st4" d="M735.79,507.27c0,0,31.25,1.56,49.99-4.69c18.75-6.25,82.8-43.75,98.43-57.81
		c15.62-14.06,23.43-67.18,17.19-74.99c-6.25-7.81-48.43-6.25-56.24,3.12c-7.81,9.37-49.99,89.05-57.81,95.3
		C779.53,474.46,731.1,505.71,735.79,507.27z"/>
	<path class="st6" d="M751.65,498.3c0,0,26.82,1.34,42.91-4.02s71.07-37.55,84.48-49.61c13.41-12.07,20.11-57.66,14.75-64.37
		c-5.36-6.7-41.57-5.36-48.27,2.68s-42.91,76.43-49.61,81.8S747.63,496.96,751.65,498.3z"/>
	<path class="st7" d="M193.66,369.79l86.96,35.33c7.88,3.2,13.03,10.85,13.03,19.35l0,0c0,0-14.06,0-32.81-6.25
		S193.66,369.79,193.66,369.79z"/>
	<path class="st7" d="M838.9,374.47l-86.96,35.33c-7.88,3.2-13.03,10.85-13.03,19.35l0,0c0,0,14.06,0,32.81-6.25
		S838.9,374.47,838.9,374.47z"/>
	<path class="st8" d="M222.67,276.81L247.73,234c2.49-4.25,5.25-8.34,8.26-12.23l28.18-36.4c3.06-3.95,7.6-6.48,12.56-7.01
		l93.01-9.87c1.55-0.16,3.1-0.29,4.66-0.37l81.43-4.21c4.24-0.22,8.27,1.84,10.57,5.4l10.01,15.47c2.15,3.32,5.84,5.33,9.8,5.33
		h19.6c4.27,0,8.23-2.2,10.5-5.82l7.09-11.34c3.03-4.86,8.42-7.74,14.14-7.57l90.85,2.67c4.1,0.12,8.18,0.48,12.24,1.07l71.69,10.43
		c5.25,0.76,10.02,3.44,13.42,7.51l26.56,31.87c10,12,18.64,25.06,25.76,38.96l13.38,26.09c3.19,6.21-1.52,13.56-8.5,13.25
		l-299.26-13.01c-5.67-0.25-11.34-0.29-17.01-0.13l-255.5,7.28C223.64,291.51,218.85,283.33,222.67,276.81z"/>
	<path class="st9" d="M254,677c0,0-64.45,3.13-95.72-0.94s-79.4-23.87-79.4-23.87l11.11-11.11c0,0,0.55,4.98,31.79,15.45
		s87.98,15.7,89.11,16.09C212,673,254,677,254,677"/>
	<path class="st9" d="M778.19,678.36c0,0,67.19-6.57,96-10.47c28.81-3.89,57.45-14.04,57.45-14.04l12.51-8.68L955,656
		c0,0-37.49,17.96-71.74,21.98c-34.26,4.02-95.11,1.91-95.11,1.91L778.19,678.36z"/>
	<path class="st10" d="M211,524c0,0-42.57-10.68-79.79-27.34s-54.73-33.13-54.73-33.13L77,514l12,89l-11,15l12.7,24.36
		c0,0,4.13,3.55,26.21,12.6s88,16.68,88,16.68L315.04,681l237.19,4.51c0,0,161.62-2.89,249.19-9.7C889,669,922,658,922,658
		l19.85-10.02L957,622l-10.3-15.39l7.82-59.72l2.66-38.57l-0.51-40.34c0,0-42.38,30.19-73.02,41.11s-50.81,16.26-50.81,16.26
		s-526.76,37.95-623.55-2.45c-81.16-33.88-134.36-60.93-134.36-60.93"/>
	<path class="st11" d="M167,566l-34-22c0,0-18-11-29-21s-14-14-14-14l12,55c0,0,34,26,43,37s21,28,25,31s43,11,43,11s-18-10-25-20
		s-14-31-14-31l-6-16L167,566z"/>
	<path class="st11" d="M871,566l35-21c0,0,17-11,28-21s15-15,15-15l-13,55c0,0-34,26-43,37s-21,23-25,26s-43,16-43,16s11-11,18-21
		s10-30,10-30l9-15L871,566z"/>
	<path class="st11" d="M155,319c0,0,34,4,75,11s154,25,117,36s-195-23-208-19s-40,23-45,33s-15.72,42.79-15.72,42.79S80,373,85,367
		s46-34,46-34S155,320,155,319z"/>
	<path class="st11" d="M876.61,327c0,0-34,4-75,11s-154,25-117,36s195-23,208-19s40,23,45,33s15.72,42.79,15.72,42.79
		S951,379,946,373s-45.39-32-45.39-32S876.61,328,876.61,327z"/>
	<path class="st12" d="M79.61,618.2c0,0,25,14.06,42.18,20.31c17.19,6.25,37.5,9.37,37.5,9.37l-46.87-25v-14.06l-21.87-6.25"/>
	<path class="st12" d="M954.51,621.32c0,0-25,14.06-42.18,20.31c-17.19,6.25-37.5,9.37-37.5,9.37l46.87-25v-14.06l21.87-6.25"/>
	<path class="st1" d="M175.27,553.93l35.53-30.14c3.01-2.56,6.92-3.78,10.86-3.38c27.08,2.76,141.71,13.42,295.41,13.42
		c147.25,0,266.24-8.69,301.67-11.58c6.89-0.56,13.69,1.87,18.67,6.67l26.68,25.69c4.54,4.37,5.71,11.18,2.89,16.81l-26.6,53.21
		c-6.72,13.43-20.06,22.29-35.04,23.26l-73.27,10.75c-7.92,1.16-15.92,1.75-23.92,1.75h-95.78l-32.81-14.06H451.44l-28.12,15.62
		h-77.66c-10.71,0-21.4-0.79-31.99-2.35l-80.37-11.87c-24.13-1.81-44.98-17.57-53.28-40.3l-10.96-29.99
		C166,569.07,168.48,559.69,175.27,553.93z"/>
	<path class="st11" d="M81.17,457.28c7.81,21.87,120.3,59.37,131.24,59.37c10.94,0-42.18-54.68-42.18-54.68S145,444,140,439
		s-14-41-14-41s-42,7-45,14S81.17,457.28,81.17,457.28z"/>
	<path class="st11" d="M941.94,460.4c-14.18,18.4-120.3,59.37-131.24,59.37C799.76,519.77,855,467,855,467s31-15,37-24s13-39,13-39
		s27,7,37,12s12,12,12,12S950.87,448.8,941.94,460.4z"/>
	<path class="st11" d="M197,299l326,8l311-3c0,0-49,20-121,26s-169,11-205,10s-143-4-188-11S192,304,197,299z"/>
	<path class="st13" d="M155,319l14.17,1.83c0,0,7.83-13.83,10.83-16.83s9-6,10-6s6.79,1.48,6.79,1.48L233,235
		c0,0-12.15-1.68-35.57,13.66S161,305,161,305L155,319z"/>
	<path class="st13" d="M877,328l-7-1c0,0-10-13-13-16s-15-7-16-7s-6.79,0.48-6.79,0.48L799,245c0,0,21.34-8.73,39,13
		c26,32,32,52,32,52L877,328z"/>
	<path class="st14" d="M241,538l260.22,9L803,539l-27.75,53.7c-11.59,22.42-34.24,36.79-59.25,37.58L503.2,637l-176.35-7.58
		c-33.84-1.46-63.3-23.82-74.12-56.26L241,538z"/>
</g>
<g id="Layer_2">
	<g>
		<path class="st15" d="M88.98,640.07L78.05,618.2l10.94-15.62c0,0-14.06-53.12-12.5-139.05c1.56-85.93,9.37-98.43,9.37-98.43
			s45.31-32.81,54.68-37.5s14.06-7.81,14.06-7.81s9.37-25,21.87-48.43s43.75-34.37,43.75-34.37s54.68-74.99,89.05-85.93
			C343.64,140.12,432.7,137,515.5,137s189.04,6.25,212.48,15.62c23.43,9.37,57.81,51.56,65.62,62.49
			c7.81,10.94,17.19,26.56,17.19,26.56s26.56,6.25,43.75,39.06c17.19,32.81,21.87,46.87,21.87,46.87s64.06,32.81,70.3,46.87
			s14.06,112.49,7.81,173.42c-4.53,44.17-7.01,55.09-8.03,57.75c-0.25,0.65-0.18,1.39,0.21,1.97l9.38,13.71
			c0,0-10.94,25-15.62,26.56c-4.69,1.56-17.19,37.5-426.52,37.5S88.98,640.07,88.98,640.07z"/>
		<path class="st16" d="M196.79,299.48c0,0,18.75-40.62,45.31-76.55c26.56-35.93,45.31-51.56,45.31-51.56s90.61-14.06,226.54-14.06
			s229.66,15.62,229.66,15.62s21.87,20.31,51.56,65.62s39.06,65.62,39.06,65.62s-221.85-4.69-324.96-4.69
			S215.53,297.92,196.79,299.48z"/>
		<path class="st17" d="M296.77,502.58c0,0-31.25,1.56-49.99-4.69c-18.75-6.25-82.8-43.75-98.43-57.81s-23.43-67.18-17.19-74.99
			c6.25-7.81,48.43-6.25,56.24,3.12c7.81,9.37,49.99,89.05,57.81,95.3C253.03,469.78,301.46,501.02,296.77,502.58z"/>
		<path class="st18" d="M193.66,369.79l86.96,35.33c7.88,3.2,13.03,10.85,13.03,19.35l0,0c0,0-14.06,0-32.81-6.25
			S193.66,369.79,193.66,369.79z"/>
		<g>
			<path class="st19" d="M157.88,360.53c3.21,5.18,6.37,10.31,9.65,15.31c3.36,4.92,6.77,9.86,10.9,13.79
				c1.99,1.89,4.45,3.49,6.97,5.05c2.5,1.56,5.13,2.97,7.76,4.4c5.29,2.81,10.7,5.45,16.14,8.21c-5.99-1.19-11.81-3.05-17.47-5.39
				c-2.84-1.15-5.62-2.45-8.33-3.95c-1.35-0.76-2.69-1.54-4-2.42l-0.98-0.65c-0.32-0.24-0.64-0.51-0.96-0.76
				c-0.63-0.52-1.31-1-1.86-1.58c-2.37-2.19-4.26-4.69-6.06-7.21c-1.78-2.54-3.33-5.2-4.77-7.9
				C162.01,372.01,159.58,366.39,157.88,360.53z"/>
		</g>
		<g>
			<path class="st20" d="M134.29,368.22c0.15,9.23,1.26,18.42,3.25,27.4c1.98,8.97,4.86,17.77,9.09,25.89
				c4.25,8.09,9.77,15.53,16.93,21.22c7.02,5.88,14.59,11.14,22.4,16c7.78,4.91,15.75,9.53,23.85,13.92
				c8.1,4.39,16.36,8.47,24.67,12.46c4.15,1.99,8.36,3.88,12.58,5.71c2.13,0.87,4.25,1.77,6.4,2.54c0.54,0.21,1.07,0.39,1.61,0.54
				c0.54,0.14,1.06,0.35,1.63,0.44l3.39,0.64c9.07,1.66,18.2,3.01,27.32,4.48c-4.59-0.51-9.17-1.05-13.75-1.64
				c-4.58-0.58-9.16-1.18-13.73-1.87c-1.14-0.18-2.28-0.37-3.43-0.57c-0.57-0.08-1.15-0.28-1.72-0.42
				c-0.58-0.14-1.14-0.32-1.68-0.52c-2.21-0.73-4.36-1.6-6.52-2.43c-4.28-1.75-8.54-3.57-12.74-5.48
				c-16.83-7.65-33.2-16.32-48.94-26.09c-7.82-4.95-15.42-10.29-22.51-16.31c-7.26-5.88-13.03-13.57-17.12-21.91
				c-4.14-8.35-6.89-17.3-8.68-26.39c-0.86-4.55-1.48-9.14-1.88-13.75C134.31,377.47,134.12,372.84,134.29,368.22z"/>
		</g>
		<path class="st21" d="M175.27,553.93l35.53-30.14c3.01-2.56,6.92-3.78,10.86-3.38c27.08,2.76,141.71,13.42,295.41,13.42
			c147.25,0,266.24-8.69,301.67-11.58c6.89-0.56,13.69,1.87,18.67,6.67l26.68,25.69c4.54,4.37,5.71,11.18,2.89,16.81l-26.6,53.21
			c-6.72,13.43-20.06,22.29-35.04,23.26l-73.27,10.75c-7.92,1.16-15.92,1.75-23.92,1.75h-95.78l-32.81-14.06H451.44l-28.12,15.62
			h-77.66c-10.71,0-21.4-0.79-31.99-2.35l-80.37-11.87c-24.13-1.81-44.98-17.57-53.28-40.3l-10.96-29.99
			C166,569.07,168.48,559.69,175.27,553.93z"/>
		<path class="st22" d="M166.32,565.86c0,0-17.19-10.94-37.5-23.43s-39.06-32.81-39.06-32.81l12.5,54.68
			c0,0,39.06,29.68,45.31,39.06s18.75,26.56,21.87,28.12c3.12,1.56,37.5,10.94,37.5,10.94"/>
		<g>
			<path class="st23" d="M872.49,565.86l20.09-12.83l20.17-12.7c6.63-4.36,12.85-9.31,18.85-14.5c5.97-5.22,11.73-10.7,17.16-16.47
				l0.98-1.04l-0.31,1.38l-6.19,27.36c-2.07,9.12-4.1,18.24-6.22,27.35l-0.04,0.17l-0.14,0.11c-8.67,6.61-17.24,13.35-25.64,20.31
				c-4.19,3.48-8.34,7.02-12.33,10.72c-1.99,1.86-3.95,3.75-5.73,5.78c-0.9,1.02-1.65,2.1-2.45,3.23c-0.39,0.57-0.81,1.11-1.23,1.65
				c-0.42,0.55-0.84,1.08-1.28,1.6c-3.49,4.22-7.34,8.12-11.32,11.86c-2,1.86-4.04,3.68-6.16,5.41c-1.07,0.86-2.13,1.71-3.34,2.43
				c-1.25,0.64-2.54,1.07-3.81,1.56c-10.25,3.76-20.57,7.28-30.89,10.83c10.26-3.7,20.54-7.38,30.72-11.28
				c1.26-0.51,2.57-0.96,3.74-1.57c1.13-0.68,2.2-1.54,3.25-2.4c2.1-1.73,4.12-3.55,6.1-5.42c3.95-3.75,7.77-7.65,11.2-11.85
				c0.44-0.52,0.86-1.05,1.26-1.6c0.41-0.54,0.83-1.07,1.21-1.63c0.76-1.1,1.57-2.26,2.47-3.3c1.81-2.07,3.77-3.98,5.76-5.86
				c3.99-3.74,8.13-7.3,12.31-10.81c8.37-7.01,16.92-13.79,25.57-20.45l-0.18,0.28c2.04-9.12,4.18-18.22,6.28-27.33l6.31-27.33
				l0.66,0.35c-5.49,5.78-11.28,11.24-17.3,16.45c-6.04,5.18-12.3,10.12-18.98,14.46c-6.72,4.27-13.54,8.33-20.3,12.51
				L872.49,565.86z"/>
		</g>
		<g>
			<path class="st23" d="M79.61,618.2c6.27,3.39,12.62,6.65,19.03,9.76c6.4,3.12,12.87,6.13,19.49,8.74
				c6.62,2.6,13.45,4.63,20.34,6.38c6.9,1.72,13.88,3.19,20.9,4.32l-0.31,0.92l-23.42-12.53l-23.39-12.59l-0.19-0.1l0-0.21
				l0.11-14.06l0.18,0.23l-21.81-6.48l21.94,6.02l0.17,0.05l0,0.19l0.11,14.06l-0.19-0.31l23.48,12.41l23.45,12.46l2.66,1.41
				l-2.96-0.49c-7.06-1.17-14.04-2.66-20.97-4.42c-6.91-1.78-13.78-3.84-20.4-6.56c-6.61-2.72-13.06-5.79-19.42-9.02
				C92.08,625.12,85.81,621.73,79.61,618.2z"/>
		</g>
		<g>
			<path class="st23" d="M954.51,621.32c-6.19,3.53-12.47,6.92-18.82,10.18c-6.36,3.23-12.81,6.3-19.42,9.02
				c-6.62,2.72-13.48,4.78-20.4,6.56c-6.93,1.76-13.91,3.25-20.97,4.42l-2.96,0.49l2.66-1.41l23.45-12.46l23.48-12.41l-0.19,0.31
				l0.11-14.06l0-0.19l0.17-0.05l21.94-6.02l-21.81,6.48l0.18-0.23l0.11,14.06l0,0.21l-0.19,0.1l-23.39,12.59l-23.42,12.53
				l-0.31-0.92c7.01-1.13,13.99-2.6,20.9-4.32c6.9-1.75,13.72-3.78,20.34-6.38c6.62-2.62,13.08-5.62,19.49-8.74
				C941.9,627.97,948.24,624.72,954.51,621.32z"/>
		</g>
		<g>
			<path class="st24" d="M192.88,540.86l31.26,3.03l-0.09,0.04l4.66-7.83l0.04-0.06l0.07,0c48.27,2.44,96.56,4.57,144.86,6.2
				c24.15,0.8,48.31,1.47,72.47,1.98c24.16,0.46,48.32,0.8,72.48,0.8c48.32,0.02,96.65-1.08,144.95-2.69
				c48.3-1.61,96.59-3.81,144.85-6.32l0.09,0l0.04,0.07l4.66,7.83l-0.1-0.06l39.06,0.11l-39.06,0.11l-0.06,0l-0.03-0.06l-4.71-7.8
				l0.13,0.07c-24.12,1.45-48.26,2.69-72.4,3.79c-24.14,1.11-48.29,2.1-72.44,2.97c-48.3,1.7-96.63,2.93-144.98,2.96
				c-24.17-0.05-48.34-0.44-72.5-0.95c-24.16-0.56-48.32-1.28-72.47-2.13c-48.3-1.76-96.59-3.86-144.85-6.66l0.11-0.06l-4.71,7.8
				l-0.03,0.05l-0.06-0.01L192.88,540.86z"/>
		</g>
		<g>
			<path class="st24" d="M235.06,537.04l18.48,37.03l4.62,9.26l2.31,4.63l1.16,2.31l1.22,2.27c3.27,6.03,7.42,11.57,12.29,16.39
				c9.74,9.64,22.39,16.24,35.82,18.8c1.68,0.33,3.38,0.51,5.07,0.78c1.7,0.15,3.4,0.27,5.11,0.39l10.34,0.43l20.68,0.82
				c27.57,1.03,55.14,2.09,82.71,2.87c27.57,0.78,55.16,1.4,82.73,1.36c27.57-0.06,55.14-0.98,82.71-2.04
				c27.56-1.08,55.12-2.5,82.67-3.91l20.66-1.11l10.33-0.58l5.11-0.45c1.7-0.21,3.38-0.52,5.07-0.78
				c13.46-2.5,26.21-8.68,36.56-17.68c5.19-4.48,9.78-9.66,13.61-15.36c3.9-5.67,6.66-12.01,9.64-18.23l17.73-37.4l-17.29,37.6
				c-2.9,6.24-5.6,12.65-9.47,18.43c-3.8,5.8-8.38,11.09-13.57,15.69c-10.4,9.2-23.31,15.54-36.96,18.18
				c-1.72,0.27-3.43,0.61-5.15,0.83l-5.19,0.5l-10.33,0.65l-20.66,1.25c-27.55,1.65-55.11,3.01-82.68,4.19
				c-27.57,1.12-55.16,2.11-82.78,2.22c-27.61-0.02-55.2-0.7-82.79-1.54c-27.58-0.86-55.16-1.88-82.72-3.15l-20.67-0.96l-10.34-0.5
				c-1.73-0.13-3.47-0.27-5.2-0.43c-1.72-0.28-3.45-0.48-5.15-0.82c-13.66-2.69-26.47-9.48-36.27-19.34
				c-4.88-4.94-9.02-10.6-12.25-16.74l-1.2-2.3l-1.13-2.33l-2.26-4.66l-4.51-9.31L235.06,537.04z"/>
		</g>
		<g>
			<path class="st14" d="M176.48,572.89c0,0,18.75,10.94,39.06,17.19c20.31,6.25,25,3.12,25,3.12l-12.5-12.5"/>
			<path class="st25" d="M176.48,572.89c5.1,2.54,10.26,4.92,15.47,7.19c5.2,2.27,10.46,4.41,15.78,6.32
				c5.32,1.93,10.72,3.63,16.2,4.96c2.74,0.66,5.49,1.24,8.27,1.56c1.39,0.15,2.78,0.27,4.15,0.26c0.69,0,1.37-0.03,2.03-0.12
				c0.34-0.03,0.66-0.11,0.97-0.17c0.15-0.04,0.31-0.08,0.45-0.13c0.13-0.04,0.31-0.12,0.34-0.13l-0.11,1.07
				c-2.02-2.15-4.06-4.27-6.05-6.45c-1.99-2.18-4.01-4.33-5.96-6.54c2.21,1.95,4.36,3.97,6.54,5.96c2.18,1.99,4.31,4.03,6.45,6.05
				l0.66,0.62l-0.76,0.46c-0.49,0.29-0.8,0.36-1.2,0.49c-0.37,0.1-0.75,0.19-1.12,0.25c-0.74,0.13-1.48,0.2-2.22,0.23
				c-1.47,0.09-2.93,0.01-4.37-0.11c-2.89-0.27-5.73-0.75-8.53-1.41c-2.81-0.63-5.56-1.41-8.31-2.23l-4.08-1.35
				c-1.35-0.49-2.7-0.95-4.04-1.46c-5.35-2.03-10.58-4.36-15.69-6.89C186.27,578.74,181.27,575.98,176.48,572.89z"/>
		</g>
		<g>
			<path class="st14" d="M857.65,572.89c0,0-18.75,10.94-39.06,17.19c-20.31,6.25-25,3.12-25,3.12l12.5-12.5"/>
			<path class="st25" d="M857.65,572.89c-4.79,3.09-9.79,5.85-14.89,8.42c-5.11,2.54-10.34,4.86-15.69,6.89
				c-1.34,0.51-2.69,0.97-4.04,1.46l-4.08,1.35c-2.75,0.82-5.5,1.6-8.31,2.23c-2.8,0.66-5.64,1.14-8.53,1.41
				c-1.45,0.12-2.9,0.2-4.37,0.11c-0.73-0.03-1.47-0.1-2.22-0.23c-0.37-0.05-0.74-0.15-1.12-0.25c-0.4-0.13-0.7-0.2-1.2-0.49
				l-0.76-0.46l0.66-0.62c2.15-2.02,4.27-4.06,6.45-6.05c2.18-1.99,4.33-4.01,6.54-5.96c-1.95,2.21-3.97,4.36-5.96,6.54
				c-1.99,2.18-4.03,4.31-6.05,6.45l-0.11-1.07c0.03,0.01,0.21,0.09,0.34,0.13c0.14,0.05,0.3,0.08,0.45,0.13
				c0.32,0.06,0.64,0.14,0.97,0.17c0.66,0.09,1.35,0.13,2.03,0.12c1.37,0.02,2.76-0.11,4.15-0.26c2.77-0.32,5.53-0.9,8.27-1.56
				c5.48-1.32,10.88-3.03,16.2-4.96c5.32-1.92,10.58-4.06,15.78-6.32C847.39,577.81,852.55,575.43,857.65,572.89z"/>
		</g>
		<g>
			<path class="st26" d="M338.96,351.04l-46.34-8.77c-15.45-2.9-30.9-5.82-46.37-8.6c-15.46-2.85-30.94-5.57-46.45-8.14
				c-7.75-1.28-15.52-2.5-23.3-3.58c-1.94-0.28-3.89-0.55-5.84-0.79c-1.95-0.26-3.9-0.48-5.85-0.69c-3.91-0.39-7.82-0.81-11.76-0.67
				c3.93-0.22,7.86,0.13,11.78,0.43c1.96,0.17,3.92,0.35,5.87,0.57c1.96,0.2,3.91,0.43,5.86,0.67c7.8,0.98,15.59,2.12,23.36,3.3
				c15.54,2.41,31.03,5.14,46.51,7.91c15.46,2.86,30.92,5.77,46.34,8.83l23.12,4.66L338.96,351.04z"/>
		</g>
		<g>
			<path class="st26" d="M690.48,358.85l23.08-4.86l23.12-4.66c15.42-3.06,30.88-5.97,46.34-8.83c15.48-2.77,30.97-5.5,46.51-7.91
				c7.77-1.19,15.56-2.33,23.36-3.3c1.95-0.24,3.9-0.47,5.86-0.67c1.95-0.22,3.91-0.4,5.87-0.57c3.92-0.3,7.85-0.65,11.78-0.43
				c-3.93-0.14-7.85,0.29-11.76,0.67c-1.95,0.21-3.9,0.43-5.85,0.69c-1.95,0.24-3.9,0.51-5.84,0.79c-7.78,1.08-15.55,2.3-23.3,3.58
				c-15.51,2.57-30.99,5.29-46.45,8.14c-15.47,2.78-30.92,5.7-46.37,8.6L690.48,358.85z"/>
		</g>
		<g>
			<path d="M956.08,461.96c-9.45,8.04-19.84,14.92-30.49,21.27l-4,2.38l-4.08,2.24c-2.73,1.48-5.43,3.01-8.22,4.37
				c-2.78,1.38-5.52,2.84-8.33,4.16l-8.45,3.91c-2.82,1.29-5.72,2.41-8.58,3.62l-4.3,1.78c-1.44,0.58-2.9,1.09-4.36,1.64l-8.73,3.24
				c-2.94,1-5.9,1.94-8.85,2.89c-2.95,0.96-5.9,1.93-8.9,2.72l-8.97,2.49l-2.24,0.61l-2.27,0.52l-4.54,1.03l-9.07,2.05l9.01-2.31
				l4.5-1.14l2.25-0.58l2.23-0.67c5.93-1.8,11.92-3.37,17.75-5.47l8.8-2.98l8.69-3.28c1.44-0.55,2.9-1.07,4.34-1.66l4.28-1.8
				c2.84-1.22,5.73-2.35,8.54-3.65c11.33-4.98,22.36-10.65,33.1-16.81l4.02-2.32l3.96-2.43c2.66-1.59,5.23-3.31,7.83-5
				C946.17,469.41,951.25,465.85,956.08,461.96z"/>
		</g>
		<g>
			<path class="st26" d="M165.54,360.41c-0.74-1.54-1.31-3.15-1.88-4.76c-0.52-1.63-0.99-3.27-1.4-4.93
				c-0.83-3.32-1.39-6.7-1.71-10.11c-0.3-3.41-0.43-6.84-0.2-10.25c0.07-1.71,0.27-3.41,0.47-5.1c0.09-0.85,0.26-1.69,0.42-2.52
				c0.15-0.84,0.32-1.67,0.49-2.51c-0.3,3.4-0.63,6.77-0.61,10.16c-0.05,3.38,0.1,6.77,0.42,10.13c0.29,3.37,0.82,6.71,1.46,10.04
				C163.66,353.88,164.48,357.18,165.54,360.41z"/>
		</g>
		<g>
			<path d="M128.04,394.78c-2.13,0.07-4.24,0.39-6.33,0.76c-2.09,0.38-4.17,0.8-6.23,1.33c-4.12,1.02-8.22,2.15-12.24,3.52
				c-2.03,0.61-4.03,1.34-6.05,2.02l-5.99,2.18l-5.96,2.28c-1.98,0.77-3.96,1.58-5.95,2.32c1.91-0.95,3.84-1.85,5.76-2.77l5.87-2.55
				c3.95-1.61,7.96-3.1,12.01-4.43c4.07-1.29,8.19-2.45,12.38-3.32C119.5,395.29,123.77,394.58,128.04,394.78z"/>
		</g>
		<polygon class="st27" points="138.98,368.22 157.73,368.22 160.85,372.91 138.98,372.91 		"/>
		<polygon class="st27" points="138.98,377.6 161.07,377.6 164.76,382.29 138.98,382.29 		"/>
		<polygon class="st27" points="138.98,386.97 165.09,386.97 169.44,391.66 138.98,391.66 		"/>
		<circle class="st28" cx="178.04" cy="424.47" r="18.75"/>
		<path class="st29" d="M188.97,460.4c0,0-7.81-18.75,4.69-14.06c12.5,4.69,92.18,45.31,96.86,56.24"/>
		<path class="st17" d="M735.79,507.27c0,0,31.25,1.56,49.99-4.69c18.75-6.25,82.8-43.75,98.43-57.81
			c15.62-14.06,23.43-67.18,17.19-74.99c-6.25-7.81-48.43-6.25-56.24,3.12c-7.81,9.37-49.99,89.05-57.81,95.3
			C779.53,474.46,731.1,505.71,735.79,507.27z"/>
		<path class="st18" d="M838.9,374.47l-86.96,35.33c-7.88,3.2-13.03,10.85-13.03,19.35l0,0c0,0,14.06,0,32.81-6.25
			S838.9,374.47,838.9,374.47z"/>
		<g>
			<path class="st19" d="M874.69,365.22c-1.71,5.86-4.13,11.48-6.98,16.9c-1.44,2.7-3,5.36-4.77,7.9c-1.8,2.53-3.69,5.02-6.06,7.21
				c-0.54,0.58-1.23,1.06-1.86,1.58c-0.32,0.25-0.64,0.52-0.96,0.76l-0.98,0.65c-1.3,0.88-2.65,1.66-4,2.42
				c-2.71,1.5-5.5,2.8-8.33,3.95c-5.66,2.33-11.48,4.2-17.47,5.39c5.44-2.76,10.85-5.4,16.14-8.21c2.62-1.44,5.25-2.84,7.76-4.4
				c2.51-1.56,4.97-3.16,6.97-5.05c4.12-3.92,7.54-8.87,10.9-13.79C868.32,375.52,871.47,370.39,874.69,365.22z"/>
		</g>
		<g>
			<path class="st20" d="M898.27,372.91c0.18,4.61-0.02,9.24-0.41,13.85c-0.4,4.61-1.02,9.2-1.88,13.75
				c-1.79,9.08-4.54,18.03-8.68,26.39c-4.09,8.34-9.86,16.03-17.12,21.91c-7.09,6.02-14.69,11.36-22.51,16.31
				c-15.73,9.76-32.1,18.43-48.94,26.09c-4.21,1.91-8.46,3.73-12.74,5.48c-2.16,0.83-4.31,1.7-6.52,2.43
				c-0.54,0.2-1.1,0.38-1.68,0.52c-0.57,0.14-1.15,0.35-1.72,0.42c-1.14,0.21-2.28,0.4-3.43,0.57c-4.57,0.69-9.15,1.28-13.73,1.87
				c-4.58,0.59-9.16,1.13-13.75,1.64c9.11-1.47,18.25-2.82,27.32-4.48l3.39-0.64c0.57-0.09,1.09-0.3,1.63-0.44
				c0.54-0.14,1.07-0.32,1.61-0.54c2.15-0.76,4.27-1.67,6.4-2.54c4.22-1.83,8.43-3.72,12.58-5.71c8.3-3.99,16.57-8.07,24.67-12.46
				c8.1-4.39,16.07-9,23.85-13.92c7.81-4.86,15.38-10.12,22.4-16c7.17-5.7,12.69-13.13,16.93-21.22c4.23-8.12,7.11-16.92,9.09-25.89
				C897.01,391.33,898.12,382.14,898.27,372.91z"/>
		</g>
		<g>
			<path d="M957.64,466.65c-9.45,8.04-19.84,14.92-30.49,21.27l-4,2.38l-4.08,2.24c-2.73,1.48-5.43,3.01-8.22,4.37
				c-2.78,1.38-5.52,2.84-8.33,4.16l-8.45,3.91c-2.82,1.29-5.72,2.41-8.58,3.62l-4.3,1.78c-1.44,0.58-2.9,1.09-4.36,1.64l-8.73,3.24
				c-2.94,1-5.9,1.94-8.85,2.89c-2.95,0.96-5.9,1.93-8.9,2.72l-8.97,2.49l-2.24,0.61l-2.27,0.52l-4.54,1.03l-9.07,2.05l9.01-2.31
				l4.5-1.14l2.25-0.58l2.23-0.67c5.93-1.8,11.92-3.37,17.75-5.47l8.8-2.98l8.69-3.28c1.44-0.55,2.9-1.07,4.34-1.66l4.28-1.8
				c2.84-1.22,5.73-2.35,8.54-3.65c11.33-4.98,22.36-10.65,33.1-16.81l4.02-2.32l3.96-2.43c2.66-1.59,5.23-3.31,7.83-5
				C947.73,474.1,952.81,470.54,957.64,466.65z"/>
		</g>
		<g>
			<path class="st26" d="M867.02,365.1c1.06-3.24,1.88-6.53,2.54-9.85c0.64-3.32,1.17-6.67,1.46-10.04
				c0.32-3.36,0.47-6.75,0.42-10.13c0.01-3.39-0.32-6.76-0.61-10.16c0.17,0.83,0.34,1.67,0.49,2.51c0.16,0.84,0.33,1.68,0.42,2.52
				c0.2,1.69,0.4,3.39,0.47,5.1c0.23,3.41,0.11,6.84-0.2,10.25c-0.31,3.41-0.88,6.79-1.71,10.11c-0.41,1.66-0.89,3.3-1.4,4.93
				C868.33,361.95,867.77,363.56,867.02,365.1z"/>
		</g>
		<g>
			<path d="M902.96,402.6c4.28-0.2,8.54,0.51,12.72,1.34c4.19,0.86,8.31,2.02,12.38,3.32c4.06,1.33,8.06,2.82,12.01,4.43l5.87,2.55
				c1.92,0.93,3.86,1.82,5.76,2.77c-2-0.75-3.97-1.55-5.95-2.32l-5.96-2.28l-5.99-2.18c-2.01-0.68-4.01-1.4-6.05-2.02
				c-4.02-1.37-8.12-2.5-12.24-3.52c-2.06-0.52-4.14-0.95-6.23-1.33C907.19,402.99,905.09,402.67,902.96,402.6z"/>
		</g>
		<polygon class="st27" points="893.58,372.91 874.84,372.91 871.71,377.6 893.58,377.6 		"/>
		<polygon class="st27" points="893.58,382.29 871.49,382.29 867.8,386.97 893.58,386.97 		"/>
		<polygon class="st27" points="893.58,391.66 867.47,391.66 863.12,396.35 893.58,396.35 		"/>
		<circle class="st28" cx="854.52" cy="429.16" r="18.75"/>
		<path class="st29" d="M843.59,465.09c0,0,7.81-18.75-4.69-14.06s-92.18,45.31-96.86,56.24"/>
		<g>
			<path class="st30" d="M291.51,414.38c1.34,1.22,2.26,2.82,3.06,4.43c0.8,1.62,1.4,3.34,1.92,5.07c0.99,3.49,1.53,7.08,1.87,10.68
				c0.33,3.6,0.31,7.23,0.32,10.83l0.03,10.81l-0.09,21.63l-0.1,10.81l-0.18,10.81l-0.18-10.81l-0.1-10.81l-0.09-21.63l0.03-10.81
				c0.01-3.61,0.02-7.2-0.22-10.78c-0.26-3.58-0.74-7.15-1.65-10.63c-0.45-1.73-0.99-3.46-1.73-5.09
				C293.66,417.26,292.8,415.64,291.51,414.38z"/>
		</g>
		<g>
			<path class="st30" d="M744.18,415.16c-1.29,1.26-2.15,2.89-2.9,4.51c-0.74,1.64-1.28,3.36-1.73,5.09
				c-0.9,3.48-1.38,7.05-1.65,10.63c-0.24,3.59-0.23,7.18-0.22,10.78l0.03,10.81l-0.09,21.63l-0.1,10.81l-0.18,10.81l-0.18-10.81
				l-0.1-10.81l-0.09-21.63l0.03-10.81c0.02-3.6-0.01-7.22,0.32-10.83c0.33-3.6,0.88-7.19,1.87-10.68c0.51-1.73,1.11-3.45,1.92-5.07
				C741.92,417.98,742.84,416.38,744.18,415.16z"/>
		</g>
		<g>
			<path class="st31" d="M188.97,297.92c4.67-9.14,9.53-18.17,14.51-27.15c4.99-8.96,10.11-17.86,15.54-26.58
				c5.37-8.77,11.69-16.93,18.25-24.82c6.57-7.89,13.38-15.57,20.45-23c-3.38,3.86-6.75,7.73-10.05,11.65
				c-3.32,3.9-6.6,7.84-9.81,11.84c-3.2,4-6.39,8.01-9.43,12.13c-3.06,4.1-5.87,8.37-8.56,12.73c-5.48,8.66-10.58,17.55-15.72,26.43
				c-2.56,4.44-5.1,8.9-7.61,13.37L188.97,297.92z"/>
		</g>
		<g>
			<path class="st31" d="M842.03,305.73l-7.52-13.32c-2.5-4.44-5.02-8.88-7.57-13.29c-5.1-8.82-10.18-17.67-15.62-26.29
				c-5.28-8.71-11.52-16.78-17.35-25.15l-8.83-12.5l-8.74-12.56l9.14,12.27l9.05,12.33c3.03,4.1,5.99,8.25,8.99,12.37
				c3,4.13,5.9,8.36,8.57,12.7c5.38,8.68,10.47,17.52,15.44,26.44C832.55,287.66,837.38,296.65,842.03,305.73z"/>
		</g>
		<g>
			<polygon class="st32" points="358.25,299.23 367.4,325.16 376.45,351.12 394.39,403.09 412.11,455.14 420.89,481.19 
				429.57,507.27 420.43,481.35 411.38,455.39 393.44,403.41 375.72,351.37 366.94,325.32 			"/>
		</g>
		<g>
			<polygon class="st32" points="677.98,299.23 669.3,325.32 660.51,351.37 642.8,403.41 624.86,455.39 615.81,481.35 
				606.66,507.27 615.35,481.19 624.13,455.14 641.85,403.09 659.79,351.12 668.84,325.16 			"/>
		</g>
		<path class="st17" d="M222.67,276.81L247.73,234c2.49-4.25,5.25-8.34,8.26-12.23l28.18-36.4c3.06-3.95,7.6-6.48,12.56-7.01
			l93.01-9.87c1.55-0.16,3.1-0.29,4.66-0.37l81.43-4.21c4.24-0.22,8.27,1.84,10.57,5.4l10.01,15.47c2.15,3.32,5.84,5.33,9.8,5.33
			h19.6c4.27,0,8.23-2.2,10.5-5.82l7.09-11.34c3.03-4.86,8.42-7.74,14.14-7.57l90.85,2.67c4.1,0.12,8.18,0.48,12.24,1.07
			l71.69,10.43c5.25,0.76,10.02,3.44,13.42,7.51l26.56,31.87c10,12,18.64,25.06,25.76,38.96l13.38,26.09
			c3.19,6.21-1.52,13.56-8.5,13.25l-299.26-13.01c-5.67-0.25-11.34-0.29-17.01-0.13l-255.5,7.28
			C223.64,291.51,218.85,283.33,222.67,276.81z"/>
		<g>
			<path d="M170.23,319.79c1.03-2.9,2.42-5.68,4-8.34c1.59-2.65,3.44-5.17,5.63-7.4c1.11-1.1,2.29-2.13,3.58-3.03
				c1.31-0.87,2.71-1.63,4.22-2.1c1.5-0.48,3.08-0.75,4.65-0.63c1.56,0.13,3.09,0.53,4.48,1.18c-2.93-0.94-6.09-0.97-8.88,0.18
				c-2.8,1.08-5.23,2.96-7.34,5.11c-2.14,2.14-3.97,4.58-5.69,7.1c-0.86,1.26-1.66,2.57-2.42,3.89
				C171.66,317.07,170.93,318.42,170.23,319.79z"/>
		</g>
		<g>
			<path d="M870.15,327.6c-0.98-1.56-2.01-3.08-3.11-4.55c-1.08-1.48-2.21-2.93-3.4-4.31c-2.39-2.77-4.93-5.41-7.78-7.66
				c-2.82-2.29-5.95-4.19-9.34-5.49c-1.7-0.63-3.47-1.07-5.27-1.33c-1.81-0.25-3.64-0.23-5.48-0.1c1.81-0.36,3.67-0.48,5.53-0.39
				c1.85,0.16,3.69,0.53,5.47,1.09c3.56,1.16,6.82,3.11,9.71,5.43c2.9,2.33,5.47,5.04,7.75,7.96
				C866.5,321.18,868.54,324.29,870.15,327.6z"/>
		</g>
		<g>
			<path d="M76.83,427.66c-1.62,16.31-3.78,32.52-5.89,48.74l-1.7,12.13c-0.53,3.9-0.82,7.82-0.86,11.73
				c-0.03,1.97,0.03,3.87,0.08,5.9l0.17,6.13l0.35,12.25l0.35,12.25l0.22,12.25l0.42,24.5c0.17,16.34,0.22,32.67,0.31,49.01
				l-0.27,48.75c0.1,6.6,3,13.11,7.92,17.68c2.44,2.3,5.36,4.08,8.51,5.28c0.77,0.36,1.6,0.53,2.41,0.79
				c0.8,0.29,1.65,0.37,2.48,0.54c0.83,0.21,1.69,0.2,2.54,0.29c0.78,0.1,1.89,0.1,2.89,0.14c8.17,0.25,16.34,0.41,24.5,0.74
				l24.5,0.98l12.25,0.61l6.11,0.3c1.74,0.09,3.51-0.13,5.2-0.72c3.38-1.15,6.35-3.77,7.98-7.16c0.84-1.69,1.34-3.56,1.48-5.52
				l0.45-6.13h0.7l0.01,6.13c0.01,2.08-0.36,4.18-1.14,6.12c-1.54,3.89-4.68,7.12-8.54,8.75c-1.93,0.83-4.02,1.26-6.11,1.27
				l-6.13,0.02l-12.25,0.02l-49.01,0.09c-1.02,0-2.04,0.03-3.08-0.05c-1.04-0.07-2.08-0.05-3.1-0.25c-1.02-0.17-2.07-0.25-3.06-0.56
				c-1-0.27-2.03-0.46-2.99-0.86c-3.93-1.35-7.58-3.5-10.68-6.27c-6.23-5.52-10.1-13.62-10.41-21.95c-0.07-1.05-0.08-2.07-0.07-3.09
				l-0.01-3.06l-0.01-6.13l-0.02-12.25l-0.04-24.5l0.17-98.02l0.02-12.25c0.04-4.08-0.07-8.17,0.17-12.28
				c0.23-4.1,0.7-8.18,1.43-12.22l2.21-12.05l8.85-48.2L76.83,427.66z"/>
		</g>
		<path class="st17" d="M88.98,641.63l-10.94,10.94c0,0,32.81,15.62,68.74,21.87c35.93,6.25,106.24,3.12,106.24,3.12"/>
		<g>
			<path d="M954.86,427.53c4.22,15.84,7.91,31.77,11.64,47.7l2.68,11.98c0.9,4.14,1.55,8.35,1.94,12.6
				c0.19,2.11,0.33,4.29,0.37,6.35l0.17,6.13l0.35,12.25l0.35,12.25l0.22,12.25l0.42,24.5c0.17,16.34,0.22,32.67,0.31,49.01
				l-0.14,24.5l-0.07,12.25l-0.03,6.13l-0.03,3.06l-0.03,1.53c-0.01,0.53-0.06,1.19-0.1,1.78c-0.27,4.86-1.52,9.67-3.66,14.02
				c-2.14,4.36-5.14,8.25-8.77,11.42c-3.63,3.16-7.88,5.61-12.45,7.08c-1.12,0.43-2.31,0.63-3.47,0.92
				c-1.16,0.31-2.36,0.4-3.53,0.56c-1.18,0.2-2.37,0.16-3.56,0.21c-1.26,0.05-2.2-0.01-3.23-0.03c-8.17-0.25-16.34-0.41-24.5-0.74
				l-24.5-0.98l-12.25-0.61l-6.14-0.31c-2.34-0.1-4.65-0.72-6.72-1.73c-4.16-2.03-7.34-5.7-8.73-9.9c-0.69-2.1-0.92-4.32-0.77-6.45
				l0.45-6.13h0.7c0.14,4.07-0.49,8.27,1.12,11.97c1.48,3.7,4.49,6.77,8.16,8.31c1.83,0.78,3.82,1.18,5.81,1.19l6.12-0.01
				l12.25-0.02l49.01-0.09c1.02-0.01,2.05,0.02,3.04-0.06c1-0.07,2.01-0.05,3-0.25c0.99-0.17,1.99-0.25,2.96-0.55
				c0.97-0.27,1.96-0.45,2.88-0.84c3.79-1.31,7.3-3.4,10.28-6.08c5.98-5.34,9.67-13.15,9.95-21.16c0.07-0.99,0.07-2.01,0.06-3.04
				l-0.01-3.06l-0.01-6.13l-0.02-12.25l-0.04-24.5l0.17-98.02l0.02-12.25c-0.02-4.09,0.1-8.17-0.12-12.22
				c-0.33-8.13-2.16-16.11-3.54-24.17l-8.68-48.23L954.86,427.53z"/>
		</g>
		<path class="st17" d="M943.58,644.76l10.94,10.94c0,0-32.81,15.62-68.74,21.87c-35.93,6.25-106.24,1.56-106.24,1.56"/>
		<path class="st1" d="M196.79,280.73c0,0-29.68,0-56.24-4.69s-37.5-17.19-37.5-17.19s-9.37,12.5,12.5,21.87
			s73.43,14.06,73.43,14.06L196.79,280.73z"/>
		<path class="st17" d="M103.05,257.3c0,0-3.12-14.06,12.5-18.75c15.62-4.69,46.87-7.81,51.56,0c4.69,7.81-6.25,39.06-6.25,39.06
			S128.04,280.73,103.05,257.3z"/>
		<g>
			<path class="st32" d="M103.05,252.61c4.14-2.32,9-3.35,13.78-3.07c4.8,0.27,9.48,2.04,13.43,4.75c3.96,2.72,7.32,6.17,10.32,9.85
				c2.97,3.72,5.61,7.68,7.78,11.89c-1.26-2.01-2.58-3.96-3.99-5.86c-1.38-1.92-2.85-3.76-4.38-5.54
				c-3.08-3.54-6.39-6.94-10.29-9.52c-3.8-2.7-8.28-4.39-12.92-4.82c-2.32-0.23-4.68-0.13-6.98,0.27
				C107.47,250.96,105.19,251.62,103.05,252.61z"/>
		</g>
		<g>
			<path class="st32" d="M110.86,244.8c5.91-3.35,12.42-5.59,19.07-7.05c6.67-1.44,13.53-1.89,20.35-1.55
				c3.41,0.24,6.82,0.63,10.13,1.69c0.41,0.14,0.82,0.3,1.23,0.49c0.4,0.22,0.82,0.38,1.2,0.9c0.09,0.13,0.17,0.33,0.17,0.56
				c-0.02,0.11-0.04,0.23-0.09,0.33c-0.05,0.08-0.11,0.16-0.17,0.23c-0.12,0.17-0.2,0.27-0.31,0.44c-0.18,0.36-0.38,0.71-0.53,1.1
				c-0.64,1.53-1.17,3.14-1.66,4.75c-0.95,3.23-1.68,6.54-2.18,9.88c-0.5,3.34-0.73,6.73-0.34,10.11
				c-0.61-3.35-0.48-6.79-0.14-10.17c0.4-3.38,1.05-6.73,1.92-10.03c0.45-1.65,0.94-3.28,1.61-4.88c0.15-0.4,0.36-0.8,0.57-1.2
				c0.11-0.2,0.3-0.43,0.42-0.6c0.03-0.08,0.02,0.08-0.01-0.04c-0.11-0.18-0.5-0.41-0.84-0.57c-0.36-0.17-0.74-0.31-1.13-0.44
				c-3.16-0.99-6.55-1.34-9.9-1.56c-6.72-0.42-13.51,0.04-20.13,1.31c-3.32,0.63-6.59,1.48-9.81,2.52
				C117.06,242.06,113.89,243.29,110.86,244.8z"/>
		</g>
		<path class="st1" d="M833.78,285.42c0,0,29.68,0,56.24-4.69c26.56-4.69,37.5-17.19,37.5-17.19s9.37,12.5-12.5,21.87
			s-73.43,14.06-73.43,14.06L833.78,285.42z"/>
		<path class="st17" d="M927.52,261.99c0,0,3.12-14.06-12.5-18.75s-46.87-7.81-51.56,0c-4.69,7.81,6.25,39.06,6.25,39.06
			S902.52,285.42,927.52,261.99z"/>
		<g>
			<path class="st32" d="M927.52,257.3c-2.15-0.99-4.43-1.65-6.74-2.03c-2.31-0.4-4.67-0.5-6.98-0.27
				c-4.64,0.42-9.13,2.11-12.92,4.82c-3.89,2.58-7.21,5.98-10.29,9.52c-1.53,1.79-3,3.63-4.38,5.54c-1.41,1.9-2.73,3.85-3.99,5.86
				c2.16-4.21,4.81-8.18,7.78-11.89c3-3.68,6.36-7.13,10.32-9.85c3.95-2.71,8.62-4.49,13.43-4.75
				C918.52,253.94,923.38,254.98,927.52,257.3z"/>
		</g>
		<g>
			<path class="st32" d="M919.71,249.49c-3.04-1.51-6.2-2.74-9.42-3.78c-3.21-1.05-6.49-1.9-9.81-2.52
				c-6.62-1.26-13.41-1.72-20.13-1.31c-3.35,0.21-6.74,0.57-9.9,1.56c-0.39,0.13-0.77,0.27-1.13,0.44
				c-0.34,0.16-0.73,0.39-0.84,0.57c-0.04,0.11-0.05-0.04-0.01,0.04c0.12,0.17,0.31,0.4,0.42,0.6c0.2,0.4,0.41,0.79,0.57,1.2
				c0.67,1.6,1.16,3.23,1.61,4.88c0.87,3.3,1.52,6.65,1.92,10.03c0.34,3.38,0.47,6.82-0.14,10.17c0.38-3.37,0.16-6.77-0.34-10.11
				c-0.49-3.34-1.23-6.65-2.18-9.88c-0.49-1.61-1.02-3.22-1.66-4.75c-0.15-0.39-0.35-0.74-0.53-1.1c-0.1-0.16-0.19-0.27-0.31-0.44
				c-0.06-0.07-0.12-0.15-0.17-0.23c-0.04-0.1-0.07-0.22-0.09-0.33c0-0.22,0.07-0.43,0.17-0.56c0.38-0.52,0.79-0.68,1.2-0.9
				c0.41-0.19,0.82-0.36,1.23-0.49c3.32-1.06,6.73-1.45,10.13-1.69c6.82-0.34,13.68,0.11,20.35,1.55
				C907.29,243.89,913.8,246.14,919.71,249.49z"/>
		</g>
		<path class="st33" d="M587.48,287.84l36.09-17.8c2.9-1.43,6.12-2.13,9.38-2.03l89.41,2.59c5.7,0.17,11.23,1.91,15.92,5.04
			l28.76,19.16"/>
		<path class="st34" d="M631.5,266.5c0,0,4.3-17.01,44.92-17.01s50.08,20.01,50.08,20.01"/>
		<g>
			<polygon class="st35" points="382.7,296.36 529.56,291.67 528,288.55 407.7,291.67 384.26,293.23 367.08,297.92 379.58,297.92 
							"/>
			<path class="st36" d="M382.7,296.36l36.68-1.33l36.71-1.24l73.45-2.46l-0.3,0.5l-1.57-3.12l0.33,0.2l-71.89,1.8l-35.95,0.88
				c-5.99,0.19-11.99,0.16-17.96,0.66l-17.94,1.14l0.03,0l-17.21,4.61l-0.02-0.14l12.5,0.06l-0.01,0L382.7,296.36z M382.7,296.36
				l-3.12,1.58l0,0l0,0l-12.5,0.06l-0.53,0l0.52-0.14l17.16-4.76l0.01,0l0.02,0c11.96-0.83,23.91-1.84,35.9-1.97l35.94-0.99
				l71.89-1.93l0.23-0.01l0.1,0.2l1.56,3.13l0.24,0.49l-0.54,0.02l-73.41,2.23l-36.72,1.1L382.7,296.36z"/>
		</g>
		<g>
			<polygon class="st35" points="534.25,291.67 587.37,294.8 588.93,296.36 649.86,299.48 693.61,299.48 681.11,294.8 
				587.37,290.11 535.81,288.55 			"/>
			<path class="st36" d="M534.25,291.67l53.13,2.92l0.08,0l0.06,0.06l1.56,1.56l-0.14-0.06l52.31,2.6
				c8.71,0.63,17.45,0.36,26.17,0.4l26.18-0.04l-0.13,0.72l-12.49-4.7l0.11,0.02l-72.62-3.75l-18.16-0.94
				c-6.05-0.31-12.11-0.41-18.17-0.64l-36.34-1.27l0.01-0.01L534.25,291.67z M534.25,291.67l1.55-3.13l0-0.01l0.01,0l36.35,0.94
				l9.09,0.26c3.03,0.09,6.06,0.15,9.08,0.32l18.16,0.88l72.64,3.52l0.06,0l0.05,0.02l12.5,4.67l1.94,0.72l-2.07,0l-26.19-0.04
				c-8.73-0.07-17.47,0.18-26.18-0.48l-52.31-2.76l-0.08,0l-0.06-0.06l-1.56-1.56l0.13,0.06L534.25,291.67z"/>
		</g>
		<rect x="509.25" y="485.4" class="st17" width="17.19" height="23.43"/>
		<g>
			<path class="st37" d="M170.23,461.96c12.66,12.99,25.2,26.14,36.5,40.39c1.4,1.79,2.76,3.62,4.04,5.5
				c1.25,1.91,2.53,3.81,3.3,6.07c0.16,0.57,0.35,1.17,0.2,1.9c-0.1,0.35-0.3,0.75-0.65,0.95c-0.33,0.22-0.69,0.28-1.02,0.3
				c-1.26,0.03-2.34-0.22-3.48-0.42c-2.24-0.45-4.45-1-6.65-1.58c-8.78-2.36-17.43-5.13-26.03-8.03
				c-17.17-5.91-34.15-12.37-50.72-19.83c-8.26-3.76-16.44-7.74-24.3-12.29c-3.91-2.3-7.75-4.75-11.36-7.52
				c-1.79-1.4-3.53-2.87-5.1-4.52c-1.57-1.63-2.98-3.48-3.78-5.61c0.84,2.12,2.28,3.92,3.87,5.52c1.6,1.61,3.35,3.05,5.16,4.41
				c3.64,2.69,7.51,5.06,11.46,7.29c7.89,4.46,16.09,8.35,24.37,12.02c16.6,7.3,33.56,13.76,50.72,19.59
				c8.58,2.92,17.21,5.72,25.95,8.1c2.19,0.58,4.38,1.14,6.58,1.59c1.09,0.2,2.24,0.44,3.26,0.41c0.5-0.03,0.79-0.19,0.88-0.57
				c0.1-0.4-0.03-0.95-0.18-1.45c-0.68-2.05-1.95-3.98-3.17-5.86c-1.25-1.87-2.58-3.7-3.96-5.5c-5.51-7.18-11.47-14.03-17.5-20.8
				C182.6,475.23,176.47,468.55,170.23,461.96z"/>
		</g>
		<g>
			<path class="st37" d="M852.88,465.09c-6.24,6.58-12.38,13.27-18.4,20.05c-6.02,6.78-11.99,13.62-17.5,20.8
				c-1.37,1.8-2.7,3.63-3.96,5.5c-1.22,1.88-2.48,3.8-3.17,5.86c-0.15,0.5-0.27,1.05-0.18,1.45c0.09,0.38,0.38,0.54,0.88,0.57
				c1.01,0.02,2.17-0.21,3.26-0.41c2.2-0.45,4.4-1,6.58-1.59c8.74-2.38,17.37-5.18,25.95-8.1c17.17-5.83,34.13-12.29,50.72-19.59
				c8.29-3.67,16.48-7.56,24.37-12.02c3.94-2.23,7.81-4.6,11.46-7.29c1.81-1.36,3.56-2.8,5.16-4.41c1.59-1.6,3.03-3.41,3.87-5.52
				c-0.8,2.13-2.22,3.98-3.78,5.61c-1.57,1.64-3.31,3.12-5.1,4.52c-3.61,2.77-7.45,5.21-11.36,7.52
				c-7.86,4.56-16.04,8.53-24.3,12.29c-16.56,7.46-33.55,13.92-50.72,19.83c-8.6,2.9-17.25,5.67-26.03,8.03
				c-2.2,0.58-4.41,1.13-6.65,1.58c-1.14,0.2-2.23,0.44-3.48,0.42c-0.32-0.02-0.69-0.08-1.02-0.3c-0.36-0.19-0.56-0.6-0.65-0.95
				c-0.15-0.72,0.04-1.32,0.2-1.9c0.77-2.26,2.05-4.16,3.3-6.07c1.29-1.88,2.65-3.71,4.04-5.5
				C827.68,491.23,840.22,478.08,852.88,465.09z"/>
		</g>
		<g>
			<path class="st38" d="M168.49,572.91c2.44,5.85,5.3,11.51,8.39,17.03c3.12,5.5,6.53,10.84,10.32,15.89
				c3.76,5.06,7.9,9.85,12.51,14.14c2.32,2.12,4.72,4.15,7.28,5.96c1.29,0.88,2.57,1.79,3.93,2.57c1.35,0.83,2.67,1.54,4.12,2.11
				c2.87,1.16,5.92,1.99,8.97,2.73c3.06,0.73,6.15,1.38,9.25,1.97c6.21,1.14,12.46,2.09,18.73,2.91c12.54,1.64,25.15,2.9,37.76,4
				c25.22,2.31,50.51,3.9,75.81,5.39c12.65,0.76,25.3,1.43,37.96,2.05c12.65,0.69,25.31,1.25,37.97,1.85
				c-12.67-0.14-25.34-0.51-38.01-0.87c-12.67-0.42-25.33-0.93-38-1.5c-12.66-0.54-25.32-1.31-37.97-2.11
				c-12.65-0.82-25.3-1.73-37.93-2.83c-12.63-1.16-25.25-2.48-37.83-4.19c-6.29-0.86-12.56-1.84-18.81-3.02
				c-6.23-1.25-12.49-2.53-18.48-4.98c-1.5-0.61-2.96-1.42-4.3-2.28c-1.38-0.82-2.68-1.76-3.99-2.69c-2.59-1.89-5.01-3.99-7.33-6.18
				c-4.61-4.42-8.73-9.31-12.44-14.48c-3.7-5.17-7-10.62-10-16.21C173.43,584.6,170.73,578.85,168.49,572.91z"/>
		</g>
		<g>
			<path class="st38" d="M865.5,572.91c-2.24,5.93-4.94,11.68-7.93,17.28c-3,5.59-6.3,11.04-10,16.21
				c-3.7,5.17-7.83,10.06-12.44,14.48c-2.32,2.19-4.74,4.29-7.33,6.18c-1.31,0.92-2.6,1.87-3.99,2.69c-1.33,0.85-2.8,1.67-4.3,2.28
				c-6,2.45-12.25,3.73-18.48,4.98c-6.25,1.18-12.52,2.16-18.81,3.02c-12.58,1.71-25.2,3.03-37.83,4.19
				c-12.63,1.1-25.28,2.01-37.93,2.83c-12.65,0.8-25.31,1.56-37.97,2.11c-12.66,0.57-25.33,1.07-38,1.5
				c-12.67,0.35-25.34,0.72-38.01,0.87c12.66-0.59,25.32-1.16,37.97-1.85c12.66-0.62,25.31-1.3,37.96-2.05
				c25.29-1.49,50.58-3.08,75.81-5.39c12.61-1.1,25.22-2.35,37.76-4c6.27-0.83,12.52-1.77,18.73-2.91c3.1-0.59,6.19-1.23,9.25-1.97
				c3.05-0.74,6.1-1.57,8.97-2.73c1.45-0.57,2.77-1.28,4.12-2.11c1.36-0.78,2.64-1.69,3.93-2.57c2.56-1.81,4.97-3.84,7.28-5.96
				c4.61-4.28,8.75-9.07,12.51-14.14c3.8-5.04,7.2-10.39,10.32-15.89C860.2,584.43,863.06,578.77,865.5,572.91z"/>
		</g>
		<g>
			<path class="st32" d="M196.5,300.5c6.18,2.68,12.59,4.74,19.02,6.71l4.84,1.43l2.42,0.71l2.44,0.64l9.76,2.56
				c13.09,3.11,26.24,5.93,39.5,8.2c26.48,4.7,53.17,8.21,79.96,10.63c53.55,5.11,107.37,7.15,161.17,7.09
				c13.45,0,26.9-0.18,40.35-0.26c6.73,0.01,13.45-0.28,20.17-0.42l20.17-0.53l5.04-0.14l5.04-0.23l10.08-0.46l20.15-0.92
				l20.13-1.32c6.71-0.43,13.43-0.82,20.12-1.44l20.1-1.71c6.69-0.66,13.37-1.42,20.06-2.12c6.69-0.65,13.35-1.59,20.02-2.45
				l10-1.31l9.97-1.55l9.97-1.53l9.93-1.78c6.63-1.11,13.2-2.54,19.79-3.9c3.29-0.68,6.55-1.52,9.83-2.27
				c3.28-0.73,6.53-1.62,9.77-2.49c6.49-1.75,12.95-3.66,19.21-6.13c-6.23,2.54-12.68,4.53-19.15,6.36
				c-3.24,0.91-6.48,1.84-9.75,2.62c-3.27,0.79-6.52,1.68-9.81,2.39c-6.58,1.44-13.14,2.95-19.76,4.14l-9.92,1.9l-9.96,1.65
				l-9.97,1.63l-10,1.38c-6.67,0.91-13.33,1.9-20.03,2.59c-6.69,0.75-13.37,1.56-20.07,2.26l-20.11,1.85
				c-6.7,0.68-13.42,1.11-20.13,1.58l-20.15,1.37l-20.17,0.97l-10.09,0.48l-5.04,0.24l-5.05,0.15l-20.18,0.58
				c-6.73,0.16-13.46,0.46-20.19,0.47c-13.46,0.11-26.92,0.33-40.38,0.35c-53.84-0.11-107.73-2.12-161.32-7.56
				c-26.8-2.61-53.5-6.29-79.98-11.2c-13.24-2.43-26.38-5.41-39.44-8.68l-9.74-2.68l-2.43-0.67l-2.41-0.74l-4.82-1.49
				C209.04,305.4,202.64,303.25,196.5,300.5z"/>
		</g>
		<path class="st17" d="M265.5,290.5c0,0,26.53-79.13,76.27-116.56"/>
		<path class="st17" d="M694.11,174.96c0,0,59.35,76.52,73.87,121.53"/>
		<path class="st39" d="M200.5,300.5c0,0,189,5,324,6s307-1,307-1"/>
		<polygon class="st40" points="329.85,300.21 473,157.5 544,157.5 419.72,300.21 		"/>
		<polygon class="st41" points="600.5,159.5 502.5,299.5 602.87,300.57 688.66,166.11 645.5,162.5 		"/>
		<circle class="st42" cx="162" cy="415.25" r="13.75"/>
		<circle class="st42" cx="171" cy="406" r="6"/>
		<circle class="st42" cx="871.25" cy="415.25" r="13.75"/>
		<circle class="st42" cx="862.25" cy="406" r="6"/>
		<g>
			<path class="st43" d="M328.5,156.5c7.87-1.21,15.76-2.29,23.67-3.21c7.9-0.99,15.82-1.81,23.74-2.67
				c7.93-0.78,15.86-1.45,23.8-2.15l23.83-1.77c7.95-0.48,15.9-0.96,23.86-1.38l23.88-0.91c3.98-0.18,7.96-0.22,11.95-0.31
				l11.95-0.24c3.98-0.06,7.97-0.2,11.95-0.2l11.95-0.01l11.95,0.05l5.98,0.04l5.97,0.16l23.9,0.63c7.96,0.28,15.92,0.76,23.88,1.13
				l11.94,0.6c3.97,0.28,7.94,0.64,11.92,0.95l23.82,1.94l23.76,2.63l11.87,1.39l11.82,1.76c7.88,1.16,15.75,2.35,23.62,3.57
				c-7.91-0.9-15.82-1.82-23.72-2.78l-11.85-1.42l-11.89-1.05l-23.76-2.21l-23.81-1.53c-3.97-0.25-7.94-0.53-11.91-0.74l-11.92-0.52
				c-7.95-0.32-15.89-0.76-23.84-0.99l-23.85-0.49l-5.96-0.12l-5.96-0.01l-11.93,0.01c-31.81-0.15-63.63,0.69-95.41,2.35
				l-23.83,1.36c-7.94,0.55-15.87,1.11-23.81,1.72C360.17,153.26,344.33,154.74,328.5,156.5z"/>
		</g>
	</g>
</g>
</svg>
